<?xml version="1.0" standalone="no"?>
<!DOCTYPE svg PUBLIC "-//W3C//DTD SVG 20010904//EN"
 "http://www.w3.org/TR/2001/REC-SVG-20010904/DTD/svg10.dtd">
<svg version="1.0" xmlns="http://www.w3.org/2000/svg"
 width="500.000000pt" height="500.000000pt" viewBox="0 0 500.000000 500.000000"
 preserveAspectRatio="xMidYMid meet">
<metadata>
Created by potrace 1.11, written by Peter Selinger 2001-2013
</metadata>
<g transform="translate(0.000000,500.000000) scale(0.100000,-0.100000)"
fill="#000000" stroke="none">
<path d="M1472 4338 c-5 -5 -24 -10 -42 -10 -17 -1 -34 -6 -36 -13 -3 -7 -16
-10 -30 -7 -14 2 -24 0 -24 -7 0 -6 -13 -11 -30 -11 -16 0 -30 -5 -30 -11 0
-5 -4 -8 -9 -5 -5 3 -14 -1 -21 -9 -7 -8 -16 -13 -20 -10 -5 3 -17 -6 -28 -20
-11 -13 -22 -22 -24 -19 -7 7 -78 -36 -78 -47 0 -5 -7 -9 -16 -9 -9 0 -31 -16
-50 -35 -18 -19 -37 -35 -42 -35 -5 0 -43 -33 -84 -74 -42 -41 -80 -71 -84
-68 -4 4 -5 2 -1 -3 3 -6 -17 -32 -44 -59 -27 -26 -49 -51 -49 -56 0 -5 -20
-30 -45 -54 -25 -25 -45 -50 -45 -56 0 -6 -11 -21 -25 -34 -14 -13 -25 -28
-25 -35 0 -6 -13 -23 -30 -38 -16 -14 -30 -32 -30 -39 0 -7 -10 -20 -22 -28
-12 -9 -18 -16 -13 -16 6 0 2 -5 -8 -11 -9 -6 -15 -14 -12 -19 3 -5 -6 -17
-20 -28 -13 -11 -21 -22 -18 -26 4 -3 -3 -15 -15 -26 -12 -12 -22 -27 -22 -35
0 -8 -4 -15 -10 -15 -5 0 -9 -3 -8 -7 1 -8 -6 -30 -24 -73 -6 -14 -10 -39 -9
-56 1 -18 -2 -35 -8 -39 -14 -8 -15 -115 -1 -115 5 0 8 -20 7 -45 -1 -25 2
-46 7 -48 5 -2 11 -18 12 -36 1 -19 8 -37 14 -41 7 -4 10 -12 6 -18 -3 -5 1
-13 10 -16 9 -3 14 -13 11 -20 -3 -8 1 -20 9 -26 8 -7 14 -18 14 -25 0 -14 38
-60 45 -54 8 9 -7 49 -17 43 -5 -3 -8 0 -7 7 2 8 -4 28 -12 44 -8 17 -15 37
-14 45 0 8 -2 17 -6 20 -4 3 -9 12 -11 20 -2 8 -9 21 -16 29 -8 8 -11 24 -8
37 4 13 1 24 -5 26 -17 6 -16 172 0 192 8 9 11 22 8 30 -3 8 1 17 8 20 8 3 12
14 10 25 -2 11 9 38 26 60 16 23 29 48 29 58 0 9 3 14 6 10 8 -8 35 19 32 31
-2 4 14 24 35 44 20 19 37 40 37 46 0 14 56 72 69 72 5 0 7 10 3 22 -3 14 -2
19 6 14 7 -4 12 -2 12 5 0 6 16 25 35 42 19 16 35 36 35 43 0 8 5 14 10 14 6
0 10 6 11 13 0 6 23 31 50 55 27 23 47 42 44 42 -3 0 17 20 45 45 28 25 47 45
43 45 -4 0 3 7 15 16 12 8 27 12 32 9 6 -3 10 -1 10 5 0 14 26 41 33 34 3 -3
8 3 11 14 4 11 22 27 41 36 18 9 35 20 37 25 2 5 10 11 18 13 8 2 22 10 30 19
22 23 59 41 70 34 6 -3 10 -2 10 4 0 12 59 43 70 36 4 -3 11 2 14 11 3 9 13
14 21 10 8 -3 20 1 27 8 7 7 19 11 26 8 7 -2 19 2 27 8 8 7 35 13 60 13 25 0
48 4 51 9 7 12 92 10 99 -2 4 -6 22 -9 41 -7 20 3 38 -1 45 -9 6 -8 15 -11 20
-8 5 3 9 0 9 -5 0 -6 8 -11 19 -11 10 0 24 -7 31 -15 7 -8 16 -12 21 -9 5 3 9
1 9 -3 0 -5 14 -17 30 -27 34 -19 141 -122 134 -128 -2 -2 13 -22 34 -44 20
-21 34 -40 32 -41 -3 -1 2 -11 11 -21 15 -18 31 -50 33 -65 1 -4 7 -12 15 -16
7 -5 11 -13 7 -19 -3 -6 2 -15 11 -21 10 -6 14 -11 10 -11 -4 0 -2 -10 5 -22
7 -13 11 -27 10 -32 -2 -4 2 -14 7 -20 6 -7 12 -21 14 -32 1 -10 5 -23 8 -29
3 -5 5 -17 4 -25 0 -8 4 -18 10 -22 5 -4 11 -26 12 -49 1 -23 5 -45 10 -48 12
-8 10 -262 -2 -281 -5 -8 -9 -26 -9 -40 0 -14 -3 -27 -7 -30 -5 -3 -9 -20 -11
-38 -1 -18 -5 -32 -8 -32 -3 0 -7 -12 -8 -27 -1 -15 -7 -30 -13 -34 -7 -4 -9
-11 -5 -17 3 -6 1 -12 -5 -14 -7 -2 -13 -14 -14 -25 0 -12 -7 -28 -14 -37 -8
-9 -11 -16 -7 -16 3 0 -5 -18 -18 -39 -14 -21 -22 -42 -19 -45 4 -3 1 -6 -5
-6 -7 0 -12 -9 -12 -21 0 -12 -4 -17 -11 -13 -7 4 -10 -1 -7 -12 2 -10 -6 -28
-17 -40 -35 -39 -42 -49 -37 -62 2 -6 0 -12 -5 -12 -5 0 -19 -18 -32 -40 -12
-22 -26 -40 -32 -40 -5 0 -9 -7 -9 -15 0 -9 -11 -26 -25 -39 -14 -13 -25 -28
-25 -34 0 -6 -17 -27 -37 -47 -21 -20 -38 -40 -38 -43 -1 -11 -24 -48 -25 -38
0 10 -45 -45 -45 -56 0 -4 -30 -37 -66 -72 -37 -36 -64 -67 -61 -70 3 -3 -2
-6 -10 -6 -14 0 -30 -21 -32 -42 -1 -4 -28 -33 -61 -65 -33 -32 -59 -61 -57
-65 1 -5 -3 -8 -8 -8 -14 0 -110 -98 -110 -112 0 -6 -3 -9 -6 -6 -3 4 -18 -7
-33 -23 -16 -16 -33 -29 -38 -29 -15 0 -53 -36 -53 -50 0 -6 29 -41 65 -76
l66 -63 119 119 c66 66 120 123 120 127 0 14 57 73 70 73 8 0 11 3 7 6 -3 3
15 27 41 52 26 26 46 52 44 59 -2 7 5 13 14 13 10 0 15 2 12 5 -3 3 17 28 45
55 28 28 47 50 43 50 -5 0 8 18 28 40 20 22 36 47 36 55 0 8 7 15 15 15 8 0
19 9 25 20 6 11 8 20 4 20 -4 0 6 12 21 27 15 15 33 40 41 55 8 16 18 28 23
28 5 0 12 11 15 25 4 14 11 25 16 25 6 0 10 6 10 13 0 8 9 22 20 32 11 10 20
24 20 32 0 7 5 13 11 13 6 0 9 6 6 14 -3 8 5 24 18 36 14 13 22 27 19 31 -3 5
-1 9 4 9 9 0 24 32 26 58 1 7 6 16 12 20 12 8 27 40 29 64 1 10 7 24 14 31 6
8 8 17 4 20 -3 4 1 9 9 12 9 4 14 16 12 31 -1 13 1 24 4 24 12 0 32 53 32 82
0 15 5 28 10 28 6 0 10 15 10 33 0 19 3 37 7 41 4 4 8 30 9 58 1 28 6 53 11
57 13 9 10 234 -2 238 -6 2 -10 21 -8 43 1 22 -2 40 -8 40 -5 0 -9 18 -9 40 0
22 -4 40 -10 40 -5 0 -10 11 -10 24 0 14 -5 28 -11 31 -5 4 -8 12 -6 18 2 7
-6 31 -20 55 -13 24 -21 47 -18 53 3 5 -3 19 -14 31 -12 12 -21 29 -21 38 0 9
-9 25 -20 35 -11 10 -20 24 -20 31 0 7 -9 19 -20 27 -11 8 -17 17 -13 20 3 4
-4 15 -15 26 -12 10 -22 23 -22 30 0 12 -141 153 -148 146 -2 -2 -20 12 -39
31 -19 19 -38 32 -44 29 -5 -4 -9 -3 -9 2 0 11 -51 34 -61 27 -5 -3 -9 2 -9
11 0 11 -7 15 -27 12 -16 -2 -34 1 -42 7 -17 13 -246 17 -259 4z"/>
<path d="M4077 4203 c-4 -4 -26 -8 -50 -10 -82 -5 -142 -14 -164 -25 -12 -6
-29 -8 -37 -5 -8 3 -22 -1 -31 -9 -8 -9 -15 -12 -15 -8 0 4 -8 0 -18 -9 -10
-10 -21 -14 -24 -11 -4 3 -17 0 -30 -7 -12 -7 -26 -12 -30 -11 -5 1 -8 -2 -8
-8 0 -5 -9 -10 -20 -10 -11 0 -20 -4 -20 -10 0 -5 -9 -10 -20 -10 -11 0 -20
-4 -20 -9 0 -5 -11 -12 -25 -15 -14 -4 -25 -13 -25 -22 0 -8 -5 -12 -11 -8 -6
3 -35 -18 -65 -47 -30 -30 -58 -53 -62 -52 -4 0 -27 -19 -50 -43 -24 -24 -40
-44 -36 -44 5 0 -11 -20 -35 -44 -24 -24 -42 -46 -41 -47 4 -10 -13 -38 -21
-33 -5 3 -10 0 -10 -5 -3 -27 -18 -60 -41 -93 -11 -16 -17 -32 -14 -37 3 -5 0
-11 -8 -14 -7 -3 -13 -16 -12 -29 1 -13 -2 -32 -8 -43 -14 -28 -14 -175 0
-205 6 -14 10 -34 8 -45 -1 -11 2 -22 8 -26 6 -4 11 -18 11 -33 0 -14 3 -26 8
-26 4 0 13 -16 20 -35 7 -19 17 -35 21 -35 4 0 7 -3 6 -7 -1 -5 3 -18 10 -30
7 -13 10 -23 7 -23 -3 0 6 -12 20 -26 14 -14 23 -30 20 -35 -4 -5 -1 -9 4 -9
6 0 11 -4 11 -10 0 -11 91 -144 102 -148 4 -2 8 -12 8 -23 0 -10 5 -19 10 -19
6 0 10 -7 10 -16 0 -9 10 -25 22 -35 11 -11 17 -19 13 -19 -5 0 4 -13 19 -29
16 -16 25 -34 22 -39 -3 -6 0 -12 8 -15 8 -3 22 -23 32 -44 10 -21 26 -46 36
-56 10 -10 16 -22 13 -28 -4 -5 -2 -9 3 -9 6 0 13 -11 16 -25 4 -14 11 -25 17
-25 6 0 7 -5 3 -11 -3 -6 -2 -14 3 -18 5 -3 19 -28 32 -54 17 -38 19 -52 10
-63 -6 -7 -15 -12 -19 -9 -4 3 -11 -2 -14 -11 -3 -8 -10 -13 -15 -10 -5 3 -14
-1 -21 -9 -6 -7 -19 -11 -27 -8 -12 5 -14 3 -8 -7 6 -10 4 -12 -8 -7 -11 4
-23 -3 -36 -19 -11 -14 -25 -23 -31 -19 -5 3 -10 2 -10 -3 0 -5 -12 -14 -27
-21 -15 -7 -33 -21 -41 -32 -8 -11 -20 -18 -27 -15 -7 2 -27 -13 -44 -35 -18
-21 -37 -39 -43 -39 -6 0 -39 -27 -74 -60 -34 -33 -60 -60 -58 -60 7 0 -14
-25 -67 -81 -25 -27 -44 -51 -41 -54 3 -3 -2 -5 -12 -5 -9 0 -16 -6 -14 -13 2
-7 -14 -30 -34 -50 -21 -21 -38 -43 -38 -50 0 -7 -9 -19 -19 -27 -11 -7 -18
-17 -15 -21 3 -5 -9 -21 -26 -37 -16 -16 -30 -35 -30 -43 0 -8 -9 -20 -20 -27
-12 -7 -18 -17 -15 -22 3 -5 -3 -13 -12 -19 -10 -5 -15 -13 -11 -17 4 -4 -1
-19 -12 -34 -11 -16 -21 -40 -22 -54 -1 -14 -6 -26 -10 -26 -4 0 -8 -11 -8
-24 0 -14 -4 -28 -10 -31 -5 -3 -10 -21 -10 -40 0 -19 -4 -36 -9 -39 -5 -4 -9
-41 -9 -84 0 -105 0 -112 -13 -112 -5 0 -7 4 -4 10 3 5 0 10 -8 10 -12 0 -40
47 -42 70 -3 23 -30 78 -37 74 -5 -3 -7 6 -4 20 2 14 -1 30 -9 36 -8 6 -12 20
-10 31 2 11 -2 22 -9 25 -7 3 -12 16 -10 30 1 13 -1 24 -5 24 -4 0 -16 21 -26
47 -11 26 -30 60 -43 75 -13 15 -20 28 -16 28 4 0 -2 9 -14 21 -12 11 -26 18
-31 14 -5 -3 -11 0 -13 7 -5 15 -118 14 -128 -2 -4 -6 -15 -8 -25 -4 -13 5
-16 4 -11 -4 6 -11 -5 -17 -26 -13 -5 0 -8 -3 -8 -9 0 -5 -6 -10 -13 -10 -16
0 -262 -243 -262 -258 0 -6 -17 -26 -37 -45 -21 -20 -38 -42 -38 -49 0 -7 -13
-24 -29 -38 -17 -13 -27 -28 -24 -33 3 -5 -1 -13 -8 -18 -8 -4 -14 -12 -14
-16 0 -4 -5 -16 -11 -27 -8 -13 -13 -15 -18 -7 -4 7 -3 17 2 24 5 7 9 30 9 53
0 22 3 46 7 53 4 6 9 24 12 39 3 15 7 34 11 42 3 8 7 28 8 43 1 16 6 32 12 35
6 4 9 15 7 24 -1 10 2 20 7 24 5 3 9 16 9 30 0 13 5 24 10 24 6 0 10 14 10 30
0 17 5 30 10 30 6 0 10 9 10 20 0 10 4 29 9 42 12 30 23 62 21 66 0 1 6 9 14
17 8 8 13 23 12 32 -2 10 1 21 7 24 5 4 10 18 10 33 0 14 3 23 8 20 5 -3 9 4
9 15 0 12 5 21 10 21 6 0 10 9 10 19 0 11 5 23 11 26 6 4 8 13 5 21 -3 7 2 20
10 29 9 8 12 15 8 15 -3 0 0 7 7 17 8 9 13 24 11 35 -2 10 2 18 7 18 6 0 11 9
11 20 0 11 5 20 10 20 6 0 10 8 10 18 0 9 9 28 20 42 11 14 20 33 20 42 0 20
32 92 43 96 4 2 7 12 7 23 0 10 4 19 9 19 4 0 16 25 26 55 9 31 24 62 32 70 8
8 11 19 8 25 -3 6 1 13 9 16 9 3 14 10 11 14 -3 5 -1 11 5 15 5 3 10 14 10 25
0 10 13 43 29 74 17 31 27 56 24 56 -3 0 1 10 9 23 8 12 14 32 13 44 -1 12 5
25 13 28 8 3 12 8 9 12 -4 3 -3 11 1 17 5 6 19 45 32 86 14 41 27 77 30 80 3
3 6 16 8 30 1 13 7 27 14 31 6 4 8 11 4 17 -3 6 0 12 6 14 7 3 13 11 14 19 3
44 5 50 13 45 4 -3 6 5 4 17 -3 13 2 29 11 36 8 7 12 19 9 27 -3 8 0 21 7 29
7 8 10 24 7 35 -3 10 2 25 10 31 8 7 12 21 10 30 -3 10 -1 19 4 21 5 2 11 12
13 23 2 11 9 32 15 48 6 15 8 27 5 27 -4 0 0 7 7 17 8 9 13 24 11 35 -2 10 2
18 7 18 6 0 11 14 11 30 0 17 5 30 10 30 6 0 10 15 10 34 0 19 5 38 10 41 6 4
9 12 8 18 -1 7 3 22 10 35 7 12 10 22 7 22 -3 0 1 14 10 30 9 17 13 30 10 30
-3 0 0 10 6 23 7 12 12 36 11 54 -2 17 2 34 8 38 6 4 10 55 9 128 0 97 -4 128
-18 151 -18 32 -71 55 -71 31 0 -7 -5 -15 -12 -17 -12 -4 -18 -68 -5 -68 4 0
4 -8 -1 -17 -11 -21 -5 -46 9 -37 5 3 9 -9 9 -25 0 -17 -4 -31 -9 -31 -5 0
-11 -11 -13 -25 -3 -14 -1 -25 4 -25 5 0 5 -7 0 -17 -5 -10 -7 -23 -5 -30 2
-6 -1 -14 -6 -18 -6 -3 -11 -19 -11 -34 0 -15 -3 -31 -7 -35 -4 -3 -8 -16 -10
-28 -2 -12 -7 -26 -11 -32 -5 -6 -8 -18 -7 -26 0 -8 -5 -21 -12 -28 -7 -8 -11
-18 -8 -23 4 -5 -1 -18 -9 -30 -8 -12 -13 -26 -10 -33 2 -6 -5 -35 -16 -65
-10 -30 -17 -58 -14 -63 3 -4 -1 -10 -8 -13 -8 -3 -15 -17 -16 -32 -1 -14 -6
-31 -11 -37 -5 -6 -7 -19 -6 -28 2 -9 -3 -19 -10 -22 -7 -2 -12 -13 -10 -23 1
-10 -2 -23 -7 -30 -6 -7 -12 -25 -14 -40 -7 -59 -17 -93 -24 -88 -4 3 -7 -7
-7 -21 0 -15 -6 -30 -13 -34 -7 -4 -9 -13 -6 -19 4 -6 1 -14 -7 -17 -8 -3 -14
-15 -13 -27 1 -12 -4 -28 -11 -35 -7 -7 -10 -19 -7 -27 4 -8 0 -17 -8 -20 -10
-4 -13 -15 -10 -31 2 -14 0 -24 -7 -24 -6 0 -11 -9 -11 -20 0 -12 -9 -39 -21
-61 -11 -23 -18 -47 -15 -55 3 -8 -1 -14 -10 -14 -12 0 -15 -6 -10 -24 4 -16
1 -26 -10 -30 -8 -3 -13 -10 -9 -15 3 -6 -1 -15 -8 -22 -7 -7 -11 -24 -9 -37
3 -17 1 -23 -7 -18 -7 5 -11 0 -11 -13 0 -12 -5 -21 -11 -21 -6 0 -8 -7 -5
-15 3 -9 -1 -18 -10 -22 -8 -3 -14 -13 -13 -22 2 -16 -33 -100 -48 -115 -4 -4
-8 -11 -9 -14 0 -4 -10 -27 -21 -52 -12 -25 -22 -48 -22 -53 0 -4 -7 -20 -15
-36 -9 -16 -12 -32 -8 -36 4 -5 1 -5 -5 -1 -7 4 -14 2 -14 -3 -4 -32 -27 -81
-38 -81 -5 0 -8 -10 -6 -22 3 -12 1 -25 -3 -28 -11 -8 -46 -83 -46 -100 0 -8
-3 -17 -6 -20 -11 -11 -30 -51 -30 -65 0 -8 -9 -30 -20 -50 -11 -20 -20 -44
-20 -53 0 -10 -5 -23 -12 -30 -7 -7 -8 -12 -2 -12 5 0 3 -4 -3 -8 -7 -4 -14
-17 -16 -29 -1 -12 -8 -27 -14 -35 -5 -7 -9 -23 -8 -36 1 -12 -4 -22 -11 -22
-8 0 -11 -6 -8 -14 3 -8 -1 -27 -9 -43 -8 -15 -12 -34 -10 -40 3 -7 0 -13 -6
-13 -6 0 -11 -11 -11 -24 0 -14 -5 -28 -11 -31 -6 -4 -8 -13 -5 -20 3 -8 -1
-18 -8 -24 -7 -6 -12 -21 -11 -33 1 -13 -3 -34 -10 -48 -6 -14 -10 -36 -9 -50
1 -14 -3 -30 -8 -37 -5 -7 -10 -39 -10 -72 -1 -34 -5 -61 -10 -61 -12 0 -10
-108 3 -116 6 -3 9 -19 7 -35 -3 -18 1 -30 10 -34 8 -3 11 -12 8 -20 -4 -12 4
-15 41 -15 54 0 83 25 123 105 14 28 28 52 33 53 4 2 5 8 1 13 -3 5 0 9 6 9 6
0 15 11 20 25 5 14 14 25 20 25 5 0 10 7 10 16 0 9 18 33 39 54 22 21 37 41
34 43 -2 3 23 33 57 67 34 34 59 64 57 67 -6 6 69 78 82 78 5 0 21 12 35 28
14 15 28 26 30 25 3 -2 15 5 26 14 11 10 36 18 55 18 29 0 36 -4 41 -25 3 -14
11 -25 16 -25 6 0 8 -6 5 -14 -3 -8 1 -17 9 -20 8 -3 13 -9 12 -13 -1 -4 3
-18 10 -31 7 -12 10 -22 7 -22 -4 0 0 -7 9 -15 8 -9 13 -22 10 -30 -4 -8 0
-17 9 -20 8 -4 13 -16 11 -31 -1 -14 4 -28 11 -30 8 -3 11 -12 8 -20 -3 -8 0
-14 6 -14 6 0 11 -8 11 -17 0 -10 7 -36 16 -58 8 -22 17 -48 21 -57 3 -10 9
-18 13 -18 5 0 12 -9 15 -20 4 -11 11 -18 16 -15 5 4 9 1 9 -6 0 -7 10 -9 25
-7 14 3 25 2 25 -2 0 -12 34 -6 43 8 13 20 25 14 44 -25 28 -60 109 -133 148
-133 8 0 15 -4 15 -9 0 -6 19 -9 41 -8 23 2 43 -2 46 -9 5 -13 125 -12 130 1
2 6 34 10 73 9 38 -1 70 3 70 7 0 5 15 9 34 9 19 0 38 5 41 10 3 6 17 10 31
10 13 0 24 4 24 8 0 4 12 9 27 10 15 1 30 7 34 13 4 7 12 8 18 5 6 -4 11 -1
11 7 0 9 9 13 24 12 14 -2 32 5 42 16 9 10 23 19 31 19 7 0 13 5 13 10 0 6 9
10 20 10 11 0 20 5 20 11 0 6 6 9 13 6 6 -2 22 7 35 21 13 13 26 22 29 18 3
-3 12 3 20 14 8 11 20 20 27 20 8 0 30 18 50 40 20 22 36 38 36 35 0 -2 18 15
40 39 22 24 40 46 40 50 0 4 9 16 20 28 11 12 20 28 20 35 0 7 4 13 9 13 5 0
8 11 6 25 -1 15 4 29 14 35 9 4 13 12 9 16 -4 3 -1 18 6 33 15 31 15 183 0
202 -6 8 -10 30 -9 49 0 19 -5 41 -12 48 -6 7 -10 19 -7 26 3 8 1 17 -5 21 -6
3 -11 16 -11 29 0 12 -4 26 -8 32 -14 16 -33 84 -27 94 3 5 -1 10 -9 10 -9 0
-13 7 -11 20 2 11 -3 26 -10 34 -8 8 -12 23 -10 35 2 12 0 21 -6 21 -5 0 -9 9
-9 20 0 11 -9 35 -20 55 -11 20 -20 44 -20 55 0 10 -4 22 -10 25 -5 3 -10 17
-10 31 0 13 -5 24 -11 24 -5 0 -8 4 -5 9 3 5 0 14 -8 20 -8 7 -13 20 -11 29 1
9 -2 23 -8 30 -8 10 -7 16 2 21 7 5 10 18 6 32 -5 19 -13 25 -33 24 -18 0 -26
5 -24 14 1 7 -3 19 -9 27 -6 8 -8 14 -3 14 4 0 0 6 -11 13 -10 8 -15 19 -11
25 4 7 1 12 -8 12 -9 0 -13 6 -10 13 3 8 -2 20 -10 27 -9 7 -13 16 -10 21 3 5
0 9 -5 9 -6 0 -11 8 -11 18 0 10 -9 24 -20 32 -11 8 -20 22 -20 32 0 10 -4 18
-10 18 -5 0 -10 8 -10 18 0 9 -9 23 -21 30 -12 8 -18 19 -15 28 3 8 1 14 -4
14 -6 0 -10 7 -10 15 0 8 -5 15 -11 15 -6 0 -9 6 -6 14 3 8 -5 22 -18 32 -13
10 -22 21 -19 25 2 4 -2 13 -9 21 -7 7 -14 16 -15 21 -3 18 -93 197 -102 202
-6 4 -8 10 -5 15 3 5 -2 15 -11 24 -8 9 -12 21 -9 27 4 5 0 18 -8 27 -9 9 -16
19 -15 22 0 12 -14 67 -22 85 -12 27 -7 175 6 200 6 11 9 26 7 33 -3 6 0 12 5
12 9 0 24 29 27 50 0 3 8 14 18 25 9 11 17 24 17 28 -1 4 13 21 30 37 16 15
30 33 30 39 0 14 188 201 202 201 6 0 19 10 29 22 11 11 22 18 25 15 8 -8 34
18 34 33 0 6 4 9 9 5 11 -6 61 15 61 27 0 4 12 8 26 8 14 0 23 4 19 10 -4 6 5
10 20 10 15 0 24 4 20 10 -4 7 3 9 19 6 13 -2 26 0 28 6 2 5 18 11 36 13 18 1
38 7 45 12 6 5 31 8 55 7 25 -1 45 3 48 10 3 7 26 10 62 9 31 -1 81 -2 110 -2
29 -1 51 -5 48 -10 -3 -4 5 -8 17 -8 40 -1 45 -3 50 -23 3 -11 1 -18 -4 -14
-5 3 -9 -2 -9 -10 0 -9 -8 -25 -17 -36 -10 -11 -17 -23 -15 -25 4 -8 -66 -75
-78 -75 -28 0 -49 -56 -26 -72 5 -3 25 4 45 16 20 13 39 24 43 25 25 5 37 14
32 22 -3 5 3 9 13 9 10 0 40 23 66 49 47 48 48 51 49 114 1 59 -1 67 -32 100
-18 20 -36 34 -41 32 -4 -3 -13 0 -21 7 -7 7 -22 14 -33 16 -11 2 -39 7 -63
11 -26 5 -45 4 -49 -2 -3 -5 -9 -3 -14 6 -5 9 -20 14 -34 12 -14 -1 -25 2 -25
7 0 5 -6 6 -12 1 -17 -10 -71 -10 -79 0 -3 4 -9 4 -12 0z m-366 -2058 c8 6 13
-15 10 -42 -1 -7 2 -13 6 -13 5 0 10 -14 11 -31 1 -18 6 -37 10 -43 3 -6 8
-22 10 -36 1 -14 5 -32 9 -40 4 -8 7 -25 8 -36 0 -12 5 -28 11 -35 6 -8 10
-30 9 -49 0 -19 5 -41 12 -48 6 -7 10 -22 8 -34 -3 -12 1 -28 7 -36 7 -8 11
-29 9 -47 -1 -18 2 -36 8 -40 7 -4 11 -51 11 -124 0 -104 -3 -123 -24 -165
-13 -25 -32 -54 -43 -64 -11 -9 -23 -27 -27 -39 -4 -13 -12 -24 -17 -24 -5 -1
-13 -2 -17 -3 -4 0 -21 -14 -38 -31 -17 -16 -37 -31 -45 -33 -8 -2 -28 -14
-45 -27 -17 -13 -34 -21 -38 -18 -3 3 -8 -1 -12 -10 -3 -9 -12 -13 -20 -10 -7
3 -17 -2 -20 -11 -3 -9 -10 -13 -15 -10 -5 3 -16 -1 -24 -10 -8 -8 -24 -13
-35 -11 -11 2 -20 1 -20 -3 0 -12 -52 -32 -82 -32 -15 0 -28 -4 -28 -9 0 -5
-13 -9 -29 -9 -15 1 -34 -3 -42 -8 -8 -5 -63 -9 -124 -9 -108 -1 -135 6 -135
35 0 6 -4 8 -10 5 -5 -3 -10 3 -10 14 0 12 -4 21 -8 21 -10 0 -10 133 0 140 3
3 8 19 11 35 4 29 8 44 28 93 5 13 9 32 9 42 0 10 6 23 14 27 14 9 41 54 39
64 -1 4 7 15 17 24 11 10 20 23 20 29 0 7 9 19 20 29 11 9 20 23 20 31 0 8 9
21 20 29 11 8 17 17 14 20 -4 4 8 20 26 37 18 17 30 33 27 36 -3 3 12 23 34
44 21 21 39 46 39 55 0 10 3 15 6 12 7 -7 50 43 47 54 -1 4 16 23 37 43 22 20
40 43 40 50 0 8 13 24 29 37 16 13 28 26 26 30 -3 3 7 12 20 19 14 7 27 22 31
32 3 10 9 16 13 14 4 -3 14 4 21 15 8 10 20 19 27 19 6 0 19 10 27 22 9 12 16
20 16 16 0 -3 17 10 38 31 l37 36 3 -28 c2 -15 8 -25 13 -22z m-987 -1191 c3
-8 2 -12 -4 -9 -6 3 -10 10 -10 16 0 14 7 11 14 -7z"/>
<path d="M1285 3299 c-4 -6 -4 -13 -1 -16 3 -3 0 -15 -6 -27 -7 -11 -12 -28
-13 -37 0 -9 -5 -22 -11 -30 -6 -8 -10 -24 -8 -36 2 -12 -2 -28 -9 -35 -6 -7
-11 -29 -11 -48 1 -19 -3 -41 -9 -48 -12 -15 -16 -48 -21 -150 -2 -40 -8 -78
-14 -85 -5 -6 -9 -43 -8 -82 1 -38 -3 -75 -9 -81 -6 -6 -10 -40 -10 -75 0 -35
-4 -67 -9 -71 -5 -3 -10 -37 -11 -75 -1 -38 -5 -75 -10 -83 -5 -8 -9 -44 -10
-80 0 -36 -4 -71 -8 -77 -4 -7 -8 -41 -8 -75 -1 -35 -4 -67 -9 -73 -4 -5 -7
-38 -7 -73 0 -35 -4 -67 -9 -70 -6 -4 -10 -37 -11 -75 0 -37 -5 -73 -10 -80
-5 -6 -9 -39 -8 -72 0 -33 -3 -63 -8 -66 -5 -4 -10 -31 -11 -60 -1 -30 -6 -63
-12 -74 -5 -11 -9 -45 -8 -75 1 -30 -3 -60 -8 -67 -5 -7 -8 -35 -7 -63 2 -34
-2 -54 -10 -59 -9 -6 -12 -29 -9 -80 2 -48 -1 -71 -8 -71 -7 0 -11 -16 -10
-40 1 -22 -1 -46 -6 -53 -8 -13 -10 -10 -12 23 0 11 -5 20 -11 20 -14 0 -13
-108 2 -137 7 -14 11 -28 9 -32 -2 -3 2 -15 10 -26 11 -15 17 -16 26 -7 7 7
23 12 36 12 16 0 22 4 19 14 -3 7 0 22 7 32 7 11 12 31 11 46 -1 15 3 29 10
31 7 3 11 28 10 67 -1 36 3 64 9 66 7 3 11 32 10 72 -1 37 3 70 9 73 5 4 9 31
8 62 0 36 5 59 14 67 9 8 11 19 6 33 -10 30 -5 108 7 116 6 3 9 33 8 66 -1 33
3 69 9 80 7 11 11 44 11 73 -1 30 2 52 9 52 6 0 10 27 9 68 0 37 4 73 9 80 5
7 10 42 10 78 0 35 4 67 9 70 4 3 8 41 8 85 0 46 4 79 10 79 6 0 10 32 10 75
0 41 4 75 8 75 5 0 8 24 7 53 0 28 4 66 10 82 6 17 11 56 10 88 -1 35 3 61 9
63 7 3 11 34 10 82 0 42 4 84 10 93 7 11 10 95 8 245 -3 274 -2 268 -17 243z"/>
<path d="M2660 2240 c-6 -11 -9 -23 -8 -27 1 -4 -3 -18 -10 -29 -9 -18 -9 -24
3 -34 8 -7 15 -21 15 -31 0 -12 5 -16 15 -13 8 4 15 1 15 -5 0 -6 5 -11 11
-11 7 0 9 11 6 26 -3 20 2 33 19 49 40 37 25 88 -28 92 -19 1 -31 -4 -38 -17z"/>
</g>
</svg>
